<svg xmlns="http://www.w3.org/2000/svg" viewBox="0 0 165.48 161.28"><defs><style>.cls-1{fill:#fff;}.cls-2{fill:#717272;}.cls-3{fill:#4c9ad3;}.cls-4{fill:#ca1e56;}.cls-5{fill:#888a8c;}</style></defs><title>Asset 1</title><g id="Layer_2" data-name="Layer 2"><g id="Layer_1-2" data-name="Layer 1"><path class="cls-1" d="M148.55,111.43l-18.71-.08a1,1,0,0,1-1-1l0-6.85a1,1,0,0,0-1-1l-18.5-.09a1,1,0,0,0-1,1l0,7.51a1,1,0,0,1-1.3,1,21.78,21.78,0,0,0-6.89-1.08,20.41,20.41,0,0,0-7.8,1.38,18,18,0,0,0-6,3.89.46.46,0,0,0-.07.07,14.82,14.82,0,0,0-1.73-1.67A15.36,15.36,0,0,0,81,112.34a1,1,0,0,1-.59-1.18h0a1,1,0,0,1,1-.74h4.07a1,1,0,0,0,1-.66L97.91,77a1,1,0,0,0-1-1.34L56.4,75.48v0A23,23,0,0,0,51.85,75,20.6,20.6,0,0,0,44,76.41a18.66,18.66,0,0,0-3,1.5l-.46-.85a16.93,16.93,0,0,0-3.37-4.36,20.72,20.72,0,0,0-4.27-3,21.13,21.13,0,0,0-5.09-1.91,24.11,24.11,0,0,0-14.13.95,22.25,22.25,0,0,0-7.07,4.42A20.82,20.82,0,0,0,0,88.38a23.1,23.1,0,0,0,1.69,9.08,21.08,21.08,0,0,0,4.67,7,20.4,20.4,0,0,0,7,4.44,22.72,22.72,0,0,0,8,1.48H22a1,1,0,0,1,1,1l-.14,30.76a3.58,3.58,0,0,0,3.57,3.6l36.53.16v-.55l.11.05a15.4,15.4,0,0,0,5.34,1,16,16,0,0,0,6.4-1.3,1,1,0,0,1,.87,0,12.5,12.5,0,0,0,5.94,1.32h.06a21.07,21.07,0,0,0,2.28-.14c.78-.09,1.61-.22,2.47-.4l4.77-1v-.28l.92.43a20.86,20.86,0,0,0,7.79,1.44h.12a20.74,20.74,0,0,0,8.08-1.5v1.11l20.51.09h0l8.41,0a6.85,6.85,0,0,0,5.67-10.72l-5-7.22a1,1,0,0,1,0-1.21l11.47-14A1,1,0,0,0,148.55,111.43ZM51.78,91.77a2.16,2.16,0,0,1,1.46.71,1.73,1.73,0,0,1,.28.4h0a1.94,1.94,0,0,1-.28.39,2.21,2.21,0,0,1-1.47.7h0a2.23,2.23,0,0,1-1.47-.71,1.73,1.73,0,0,1-.28-.4,2.29,2.29,0,0,1,.28-.4,2.22,2.22,0,0,1,1.47-.69Zm20.3,18.88a27.45,27.45,0,0,0-7.65,1,1,1,0,0,1-1.26-1l0-2.83a1,1,0,0,1,.42-.81,16.82,16.82,0,0,0,1.94-1.62c.29-.28.54-.58.8-.88l1.75,5.11a1,1,0,0,0,.94.68l5.58,0,.1.41C73.87,110.72,73,110.66,72.08,110.65Z"/><rect class="cls-1" x="5.09" y="143.92" width="160.4" height="17.35" rx="3.94"/><circle class="cls-1" cx="84.52" cy="78.85" r="78.85"/><path class="cls-2" d="M12.21,155a3.2,3.2,0,0,1-2.33-.84,3.1,3.1,0,0,1-.82-2.33,3.39,3.39,0,0,1,.78-2.39,2.79,2.79,0,0,1,2.15-.84,2.73,2.73,0,0,1,2,.76,2.82,2.82,0,0,1,.72,2.06v.81h-4a1.67,1.67,0,0,0,.42,1.12,1.51,1.51,0,0,0,1.11.41,4.53,4.53,0,0,0,1.06-.12,5,5,0,0,0,1-.36v1.3a3.8,3.8,0,0,1-1,.32A5.35,5.35,0,0,1,12.21,155Zm-.21-5.2a1.05,1.05,0,0,0-.84.34,1.56,1.56,0,0,0-.36,1h2.36a1.38,1.38,0,0,0-.32-1A1.11,1.11,0,0,0,12,149.78Z"/><path class="cls-2" d="M21.61,154.91H19.93l0-3.6a1.79,1.79,0,0,0-.22-1A.77.77,0,0,0,19,150a1,1,0,0,0-.94.47,3.06,3.06,0,0,0-.3,1.56v2.9H16.09l0-6.16h1.29l.22.79h.09a1.77,1.77,0,0,1,.72-.66,2.35,2.35,0,0,1,1.08-.23,1.93,1.93,0,0,1,1.87.91h.15a1.62,1.62,0,0,1,.73-.66,2.45,2.45,0,0,1,1.09-.24,2.2,2.2,0,0,1,1.59.55,2.36,2.36,0,0,1,.53,1.73l0,4H23.77l0-3.6a1.85,1.85,0,0,0-.22-1,.78.78,0,0,0-.7-.33,1.07,1.07,0,0,0-.93.43,2.54,2.54,0,0,0-.31,1.4Z"/><path class="cls-2" d="M30.57,155.06a2,2,0,0,1-1.7-.8h-.09q.09.78.09.9v2.5H27.18l0-8.88h1.36l.24.8h.07a1.94,1.94,0,0,1,1.76-.91,2,2,0,0,1,1.7.85,3.93,3.93,0,0,1,.61,2.35,4.47,4.47,0,0,1-.3,1.71,2.44,2.44,0,0,1-.83,1.11A2.13,2.13,0,0,1,30.57,155.06ZM30.1,150a1,1,0,0,0-.91.38,2.21,2.21,0,0,0-.31,1.26v.19a2.67,2.67,0,0,0,.29,1.42,1.08,1.08,0,0,0,.93.44q1.14,0,1.14-1.86a2.54,2.54,0,0,0-.27-1.37A.94.94,0,0,0,30.1,150Z"/><path class="cls-2" d="M40,151.9a3.3,3.3,0,0,1-.8,2.35,2.91,2.91,0,0,1-2.22.84,3.07,3.07,0,0,1-1.56-.4,2.57,2.57,0,0,1-1-1.12,3.8,3.8,0,0,1-.36-1.7,3.37,3.37,0,0,1,.8-2.35A2.91,2.91,0,0,1,37,148.7a3.06,3.06,0,0,1,1.56.39,2.6,2.6,0,0,1,1,1.11A3.64,3.64,0,0,1,40,151.9Zm-4.26,0a2.68,2.68,0,0,0,.29,1.38,1.25,1.25,0,0,0,2,0,2.61,2.61,0,0,0,.3-1.39,2.49,2.49,0,0,0-.29-1.38,1.08,1.08,0,0,0-1-.46,1.09,1.09,0,0,0-1,.45A2.55,2.55,0,0,0,35.69,151.88Z"/><path class="cls-2" d="M46.4,155l-.47-2.16-.62-2.73h0L44.12,155H42.31l-1.72-6.17h1.67l.7,2.73c.11.49.23,1.16.34,2h0c0-.28.09-.73.2-1.33l.09-.47.78-3h1.85l.71,3c0,.08,0,.2.07.36s.06.33.09.51.05.35.07.52a2.41,2.41,0,0,1,0,.41h0c0-.26.09-.62.18-1.09l.18-.93.76-2.73H50L48.23,155Z"/><path class="cls-2" d="M53.79,155.16a3.15,3.15,0,0,1-2.32-.83,3.1,3.1,0,0,1-.83-2.33,3.39,3.39,0,0,1,.79-2.39,2.77,2.77,0,0,1,4.89,2v.81l-4,0a1.63,1.63,0,0,0,.42,1.12,1.46,1.46,0,0,0,1.11.41,4.48,4.48,0,0,0,1.06-.11,4.78,4.78,0,0,0,1-.36v1.3a4.17,4.17,0,0,1-.94.32A5.55,5.55,0,0,1,53.79,155.16ZM53.58,150a1.08,1.08,0,0,0-.84.33,1.54,1.54,0,0,0-.35,1l2.36,0a1.43,1.43,0,0,0-.32-1A1.1,1.1,0,0,0,53.58,150Z"/><path class="cls-2" d="M61.15,148.81a2.28,2.28,0,0,1,.56.05l-.13,1.57a2.34,2.34,0,0,0-.5-.05,1.76,1.76,0,0,0-1.25.4,1.54,1.54,0,0,0-.46,1.16v3.14H57.68l0-6.16H59l.24,1h.09a2.28,2.28,0,0,1,.77-.83A1.86,1.86,0,0,1,61.15,148.81Z"/><path class="cls-2" d="M62.57,154.31a.93.93,0,0,1,.25-.7,1,1,0,0,1,.73-.24,1,1,0,0,1,.71.25.93.93,0,0,1,.24.69.91.91,0,0,1-.25.69,1,1,0,0,1-.71.25,1,1,0,0,1-.72-.25A.93.93,0,0,1,62.57,154.31Z"/><path class="cls-2" d="M71.75,155.25a3.21,3.21,0,0,1-2.32-.84,3.1,3.1,0,0,1-.83-2.33,3.44,3.44,0,0,1,.79-2.39,2.77,2.77,0,0,1,4.89,2v.81h-4a1.67,1.67,0,0,0,.42,1.12,1.51,1.51,0,0,0,1.12.4,4,4,0,0,0,1-.11,4.78,4.78,0,0,0,1-.36v1.3a3.72,3.72,0,0,1-.94.32A6.16,6.16,0,0,1,71.75,155.25Zm-.21-5.2a1.08,1.08,0,0,0-.84.33,1.61,1.61,0,0,0-.35,1h2.36a1.43,1.43,0,0,0-.32-1A1.09,1.09,0,0,0,71.54,150.05Z"/><path class="cls-2" d="M81.33,155.18H79.65v-3.6a1.7,1.7,0,0,0-.23-1,.85.85,0,0,0-.75-.34,1.14,1.14,0,0,0-1,.47,3,3,0,0,0-.32,1.56v2.9H75.64l0-6.16H77l.22.79h.1a1.8,1.8,0,0,1,.77-.67,2.71,2.71,0,0,1,1.13-.22,2.15,2.15,0,0,1,1.63.59,2.35,2.35,0,0,1,.55,1.68Z"/><path class="cls-2" d="M87,155.2l-.32-.84h0a2.35,2.35,0,0,1-.88.74,2.65,2.65,0,0,1-1.17.2,1.9,1.9,0,0,1-1.4-.51,2,2,0,0,1-.5-1.45,1.61,1.61,0,0,1,.69-1.44,4,4,0,0,1,2.08-.51l1.07,0v-.27a.84.84,0,0,0-1-.94,4.35,4.35,0,0,0-1.74.44l-.55-1.14a4.92,4.92,0,0,1,2.37-.54,3,3,0,0,1,1.9.54,2,2,0,0,1,.65,1.65l0,4.11Zm-.49-2.86-.65,0a2.15,2.15,0,0,0-1.09.26.83.83,0,0,0-.36.74c0,.48.27.71.81.72a1.29,1.29,0,0,0,.94-.34,1.18,1.18,0,0,0,.35-.89Z"/><path class="cls-2" d="M93.34,149a2,2,0,0,1,1.71.86,3.94,3.94,0,0,1,.61,2.34,3.83,3.83,0,0,1-.65,2.36,2.23,2.23,0,0,1-3.44,0h-.12l-.28.67H89.89l0-8.59h1.69v2c0,.25,0,.66-.07,1.22h.06A2,2,0,0,1,93.34,149Zm-.54,1.34a1.07,1.07,0,0,0-.91.38,2.16,2.16,0,0,0-.31,1.27v.18a2.55,2.55,0,0,0,.29,1.42,1.05,1.05,0,0,0,.93.44,1,1,0,0,0,.83-.47,3.27,3.27,0,0,0,0-2.76A1,1,0,0,0,92.8,150.29Z"/><path class="cls-2" d="M98.72,155.26H97l0-8.58h1.69Z"/><path class="cls-2" d="M103.27,155.39a3.21,3.21,0,0,1-2.32-.83,3.12,3.12,0,0,1-.83-2.33,3.45,3.45,0,0,1,.79-2.4,2.77,2.77,0,0,1,4.89,2v.82l-4,0a1.65,1.65,0,0,0,.42,1.12,1.54,1.54,0,0,0,1.11.41,5.07,5.07,0,0,0,1.06-.11,5.44,5.44,0,0,0,1-.37V155a3.74,3.74,0,0,1-.94.33A6.23,6.23,0,0,1,103.27,155.39Zm-.21-5.2a1.05,1.05,0,0,0-.84.34,1.55,1.55,0,0,0-.35,1h2.36a1.43,1.43,0,0,0-.32-1A1.12,1.12,0,0,0,103.06,150.19Z"/><path class="cls-2" d="M106.92,154.51a.93.93,0,0,1,.25-.7,1,1,0,0,1,.73-.24,1,1,0,0,1,.71.25.93.93,0,0,1,.24.69.91.91,0,0,1-.25.69,1,1,0,0,1-.71.25,1,1,0,0,1-.72-.25A.93.93,0,0,1,106.92,154.51Z"/><path class="cls-2" d="M115.82,155.45q-2.88,0-2.87-3.18a3.37,3.37,0,0,1,.8-2.4,2.94,2.94,0,0,1,2.24-.82,4.37,4.37,0,0,1,1.92.43l-.5,1.3a7.57,7.57,0,0,0-.74-.27,2.66,2.66,0,0,0-.68-.1q-1.32,0-1.32,1.86c0,1.2.43,1.81,1.3,1.81a3.16,3.16,0,0,0,.9-.12,3.33,3.33,0,0,0,.83-.4V155a2.54,2.54,0,0,1-.82.35A4.45,4.45,0,0,1,115.82,155.45Z"/><path class="cls-2" d="M124.74,152.28a3.3,3.3,0,0,1-.8,2.35,2.87,2.87,0,0,1-2.22.84,3.1,3.1,0,0,1-1.57-.39,2.63,2.63,0,0,1-1-1.13,3.77,3.77,0,0,1-.36-1.7,3.3,3.3,0,0,1,.8-2.34,2.9,2.9,0,0,1,2.22-.83,3.13,3.13,0,0,1,1.57.39,2.55,2.55,0,0,1,1,1.12A3.73,3.73,0,0,1,124.74,152.28Zm-4.27,0a2.63,2.63,0,0,0,.3,1.39,1.09,1.09,0,0,0,1,.47,1.06,1.06,0,0,0,1-.46,3.38,3.38,0,0,0,0-2.76,1.07,1.07,0,0,0-1-.46,1,1,0,0,0-1,.45A2.59,2.59,0,0,0,120.47,152.26Z"/><path class="cls-2" d="M131.81,155.41h-1.68v-3.6a1.76,1.76,0,0,0-.23-1,.87.87,0,0,0-.75-.33,1.16,1.16,0,0,0-1,.46,3,3,0,0,0-.32,1.57v2.9h-1.68l0-6.16h1.29l.22.79h.1a1.68,1.68,0,0,1,.77-.67,2.56,2.56,0,0,1,1.13-.22,2.19,2.19,0,0,1,1.63.58,2.36,2.36,0,0,1,.55,1.69Z"/><path class="cls-2" d="M135.23,153.69v1.73h-1.68l0-6.16h1.28l.23.79h.09a1.82,1.82,0,0,1,.78-.67,2.67,2.67,0,0,1,1.12-.22,2.14,2.14,0,0,1,1.63.59,2.3,2.3,0,0,1,.55,1.68l0,4h-1.68l0-3.6a1.8,1.8,0,0,0-.23-1,.88.88,0,0,0-.76-.34,1.12,1.12,0,0,0-1,.47,2.88,2.88,0,0,0-.32,1.56v1.17"/><path class="cls-2" d="M143.76,155.57a3.19,3.19,0,0,1-2.33-.83,3.11,3.11,0,0,1-.82-2.33,3.42,3.42,0,0,1,.78-2.4,2.75,2.75,0,0,1,2.15-.83,2.69,2.69,0,0,1,2,.75,2.86,2.86,0,0,1,.72,2.06v.82l-4,0a1.56,1.56,0,0,0,.42,1.12,1.47,1.47,0,0,0,1.11.41,5,5,0,0,0,1-.11,5.21,5.21,0,0,0,1-.37v1.31a4.25,4.25,0,0,1-1,.32A6.06,6.06,0,0,1,143.76,155.57Zm-.22-5.2a1.11,1.11,0,0,0-.84.34,1.58,1.58,0,0,0-.35,1h2.36a1.36,1.36,0,0,0-.32-1A1.13,1.13,0,0,0,143.54,150.37Z"/><path class="cls-2" d="M150.15,155.6q-2.88,0-2.87-3.17a3.41,3.41,0,0,1,.79-2.4,2.94,2.94,0,0,1,2.25-.82,4.11,4.11,0,0,1,1.92.43l-.5,1.29c-.27-.1-.51-.19-.74-.26a2.29,2.29,0,0,0-.68-.1c-.88,0-1.32.61-1.32,1.85s.43,1.82,1.3,1.82a2.92,2.92,0,0,0,.9-.13,3.15,3.15,0,0,0,.83-.4v1.44a2.93,2.93,0,0,1-.82.36A5.13,5.13,0,0,1,150.15,155.6Z"/><path class="cls-2" d="M156.05,154.29a3.9,3.9,0,0,0,1.06-.19v1.25a3.62,3.62,0,0,1-1.55.27,1.86,1.86,0,0,1-1.46-.51,2.2,2.2,0,0,1-.46-1.53v-3h-.8v-.71l.93-.56.49-1.3h1.08v1.32h1.73v1.26h-1.72l0,3a.66.66,0,0,0,.2.53A.83.83,0,0,0,156.05,154.29Z"/><path class="cls-2" d="M158.12,154.74a1,1,0,0,1,.25-.7,1,1,0,0,1,.73-.24,1,1,0,0,1,.7.25.91.91,0,0,1,.25.7.93.93,0,0,1-.25.68,1.15,1.15,0,0,1-1.43,0A.91.91,0,0,1,158.12,154.74Z"/><ellipse class="cls-3" cx="116.27" cy="21.62" rx="2.35" ry="2.26"/><ellipse class="cls-4" cx="18.11" cy="62.73" rx="2.35" ry="2.26"/><ellipse class="cls-4" cx="89.49" cy="13.68" rx="2.35" ry="2.26"/><ellipse class="cls-3" cx="23.7" cy="50.39" rx="2.35" ry="2.26"/><ellipse class="cls-3" cx="67.06" cy="15.94" rx="2.35" ry="2.26"/><ellipse class="cls-4" cx="32.03" cy="38.31" rx="2.35" ry="2.26"/><ellipse class="cls-4" cx="144.84" cy="108.77" rx="2.35" ry="2.26"/><ellipse class="cls-3" cx="153" cy="90.53" rx="2.35" ry="2.26"/><ellipse class="cls-4" cx="57.82" cy="19.58" rx="2.35" ry="2.26"/><ellipse class="cls-4" cx="78.27" cy="14.26" rx="2.35" ry="2.26"/><ellipse class="cls-3" cx="47.51" cy="24.7" rx="2.35" ry="2.26"/><ellipse class="cls-4" cx="137.71" cy="38.21" rx="2.37" ry="2.2"/><ellipse class="cls-3" cx="102.74" cy="16.25" rx="2.37" ry="2.2"/><ellipse class="cls-3" cx="150.03" cy="99.05" rx="2.37" ry="2.2"/><ellipse class="cls-4" cx="77.01" cy="57.56" rx="1.68" ry="1.61"/><ellipse class="cls-3" cx="78.95" cy="68.85" rx="1.68" ry="1.61"/><ellipse class="cls-4" cx="60.32" cy="74.52" rx="1.68" ry="1.61"/><ellipse class="cls-3" cx="88.94" cy="104.26" rx="1.68" ry="1.61"/><ellipse class="cls-4" cx="120.96" cy="88.04" rx="1.68" ry="1.61"/><ellipse class="cls-3" cx="121.1" cy="98.47" rx="1.68" ry="1.61"/><ellipse class="cls-5" cx="95.86" cy="90.96" rx="1.68" ry="1.61"/><ellipse class="cls-4" cx="142.91" cy="97.44" rx="1.68" ry="1.61"/><ellipse class="cls-5" cx="138.14" cy="107.63" rx="1.68" ry="1.61"/><ellipse class="cls-5" cx="82.04" cy="19.58" rx="1.68" ry="1.61"/><ellipse class="cls-4" cx="42.39" cy="35.47" rx="1.68" ry="1.61"/><ellipse class="cls-3" cx="92.87" cy="22.04" rx="1.68" ry="1.61"/><ellipse class="cls-5" cx="80.19" cy="26.56" rx="1.68" ry="1.61"/><ellipse class="cls-3" cx="67.35" cy="30.22" rx="1.68" ry="1.61"/><ellipse class="cls-3" cx="58.19" cy="26.5" rx="1.68" ry="1.61"/><ellipse class="cls-4" cx="54.87" cy="32.98" rx="1.68" ry="1.61"/><ellipse class="cls-3" cx="52.12" cy="40.57" rx="1.68" ry="1.61"/><ellipse class="cls-5" cx="27.32" cy="58.76" rx="1.68" ry="1.61"/><ellipse class="cls-5" cx="48.34" cy="49.98" rx="1.68" ry="1.61"/><ellipse class="cls-4" cx="75.64" cy="44.68" rx="1.68" ry="1.61"/><ellipse class="cls-5" cx="63.55" cy="46.48" rx="1.68" ry="1.61"/><ellipse class="cls-5" cx="37.58" cy="53.43" rx="1.68" ry="1.61"/><ellipse class="cls-4" cx="44.07" cy="61.62" rx="1.68" ry="1.61"/><ellipse class="cls-4" cx="41.62" cy="71.84" rx="1.68" ry="1.61"/><ellipse class="cls-4" cx="144.63" cy="89.01" rx="1.68" ry="1.61"/><ellipse class="cls-4" cx="87.85" cy="66.52" rx="1.68" ry="1.61"/><ellipse class="cls-5" cx="70.93" cy="71.42" rx="1.68" ry="1.61"/><ellipse class="cls-4" cx="101.1" cy="32.6" rx="1.68" ry="1.61"/><ellipse class="cls-4" cx="127.74" cy="29.49" rx="2.37" ry="2.2"/><ellipse class="cls-4" cx="146.7" cy="48" rx="2.37" ry="2.2"/><ellipse class="cls-4" cx="150.16" cy="59.81" rx="2.37" ry="2.2"/><ellipse class="cls-4" cx="153" cy="78.07" rx="2.37" ry="2.2"/><ellipse class="cls-5" cx="119.28" cy="38.01" rx="1.68" ry="1.61"/><ellipse class="cls-3" cx="130.86" cy="37.35" rx="1.68" ry="1.61"/><ellipse class="cls-4" cx="137.71" cy="49.11" rx="1.68" ry="1.61"/><ellipse class="cls-3" cx="142.02" cy="61.87" rx="1.68" ry="1.61"/><ellipse class="cls-5" cx="144.33" cy="71.42" rx="1.68" ry="1.61"/><ellipse class="cls-4" cx="106.2" cy="38.76" rx="1.68" ry="1.61"/><ellipse class="cls-3" cx="112.91" cy="51.15" rx="1.68" ry="1.61"/><ellipse class="cls-4" cx="119.83" cy="75.87" rx="1.68" ry="1.61"/><ellipse class="cls-5" cx="109.56" cy="89.34" rx="1.68" ry="1.61"/><ellipse class="cls-3" cx="133.45" cy="88.28" rx="1.68" ry="1.61"/><ellipse class="cls-5" cx="106.06" cy="22.92" rx="1.68" ry="1.61"/><ellipse class="cls-5" cx="129.98" cy="61.61" rx="1.68" ry="1.61"/><ellipse class="cls-3" cx="117.96" cy="61.99" rx="1.68" ry="1.61"/><ellipse class="cls-3" cx="99.14" cy="63.92" rx="1.68" ry="1.61"/><ellipse class="cls-5" cx="92.72" cy="41.05" rx="1.68" ry="1.61"/><ellipse class="cls-3" cx="108.44" cy="62.68" rx="1.68" ry="1.61"/><ellipse class="cls-3" cx="77.32" cy="34.6" rx="1.68" ry="1.61"/><path class="cls-3" d="M29.22,101.62a12,12,0,0,1-7.85,2.74,16.51,16.51,0,0,1-5.9-1.09,14.05,14.05,0,0,1-4.91-3.12,15.12,15.12,0,0,1-3.34-5A17.19,17.19,0,0,1,6,88.41a14.71,14.71,0,0,1,1.28-6,15,15,0,0,1,3.47-4.84,16.15,16.15,0,0,1,5.18-3.23,17.05,17.05,0,0,1,6.43-1.17,18.37,18.37,0,0,1,4.12.48A14.94,14.94,0,0,1,30.12,75a14.23,14.23,0,0,1,3,2.14,10.73,10.73,0,0,1,2.18,2.81L28.8,84.69A7.27,7.27,0,0,0,26,81.75a7.67,7.67,0,0,0-4-1.12A6.59,6.59,0,0,0,16.9,82.9a8.28,8.28,0,0,0-1.49,2.58,10.35,10.35,0,0,0,0,6.57,7.66,7.66,0,0,0,1.49,2.55,6.69,6.69,0,0,0,2.3,1.66,7.57,7.57,0,0,0,3,.6,9,9,0,0,0,6.72-3l-5.5,0,0-6.08,13.07.06-.08,16.4-7.21,0Z"/><path class="cls-3" d="M51.72,104.72a14.85,14.85,0,0,1-5.57-1,12.25,12.25,0,0,1-4-2.63,10.69,10.69,0,0,1-2.44-3.78,12.28,12.28,0,0,1-.81-4.5,12.43,12.43,0,0,1,.85-4.49,10.63,10.63,0,0,1,2.48-3.76,12.15,12.15,0,0,1,4-2.59,14.75,14.75,0,0,1,5.57-1,14.93,14.93,0,0,1,5.55,1,12.14,12.14,0,0,1,4,2.63,10.69,10.69,0,0,1,2.44,3.78,12.59,12.59,0,0,1,0,9,10.74,10.74,0,0,1-2.47,3.76,12.19,12.19,0,0,1-4.07,2.59A14.75,14.75,0,0,1,51.72,104.72ZM47.61,92.85a5.17,5.17,0,0,0,1.15,3.61,4.11,4.11,0,0,0,6,0,6.18,6.18,0,0,0,0-7.21,4.12,4.12,0,0,0-6,0A5.25,5.25,0,0,0,47.61,92.85Z"/><path class="cls-3" d="M72.62,104.38,64.8,81.52l8.73,0,4.14,16.38L82,81.59l7.92,0-8,22.79Z"/><path class="cls-4" d="M57.18,109,57,139.85l-8.73,0,.06-12.07-10.65,0-.06,12.06-8.73,0,.14-30.81,8.73,0,0,11.37,10.65.05L48.45,109Z"/><path class="cls-4" d="M68.5,140.33a9.3,9.3,0,0,1-3.27-.58,8.07,8.07,0,0,1-2.61-1.55,6.94,6.94,0,0,1-1.71-2.33A6.78,6.78,0,0,1,60.3,133a6.57,6.57,0,0,1,.77-3.16,7.57,7.57,0,0,1,2.12-2.47,9.79,9.79,0,0,1,3.2-1.59,14,14,0,0,1,4.1-.54,11.11,11.11,0,0,1,4.74.89v-.7a2.9,2.9,0,0,0-1-2.39,5,5,0,0,0-3.1-.8,10.64,10.64,0,0,0-3.72.62,17.93,17.93,0,0,0-3.59,1.83l-2.44-5.14a19.7,19.7,0,0,1,10.62-2.86q5.64,0,8.67,2.47c2,1.63,3,4.07,3,7.31l0,4.42a2.66,2.66,0,0,0,.35,1.63,1.69,1.69,0,0,0,1.25.55l0,6.94a19.71,19.71,0,0,1-2,.32,14.62,14.62,0,0,1-1.64.1,6.2,6.2,0,0,1-3.46-.82,3.76,3.76,0,0,1-1.54-2.37l-.17-.82a10.74,10.74,0,0,1-3.64,3A9.64,9.64,0,0,1,68.5,140.33Zm2.58-5.89a5.41,5.41,0,0,0,1.56-.23,5.9,5.9,0,0,0,1.44-.62,3.49,3.49,0,0,0,.81-.76,1.36,1.36,0,0,0,.32-.84v-1.7a13.12,13.12,0,0,0-1.65-.44,9.1,9.1,0,0,0-1.61-.18,4.36,4.36,0,0,0-2.6.73,2.21,2.21,0,0,0-1,1.86,1.91,1.91,0,0,0,.78,1.57A3.17,3.17,0,0,0,71.08,134.44Z"/><path class="cls-4" d="M87.13,128.57a12.24,12.24,0,0,1,.87-4.49,11,11,0,0,1,2.5-3.76,12.15,12.15,0,0,1,4.06-2.59,14.84,14.84,0,0,1,5.56-1,13.65,13.65,0,0,1,7.17,1.77,11.35,11.35,0,0,1,4.3,4.49l-8.29,2.39a3.83,3.83,0,0,0-3.26-1.71,3.93,3.93,0,0,0-3,1.27,6.06,6.06,0,0,0,0,7.25,3.87,3.87,0,0,0,3,1.29,3.79,3.79,0,0,0,3.27-1.68l8.27,2.47a11.29,11.29,0,0,1-4.34,4.45,13.63,13.63,0,0,1-7.19,1.7,14.73,14.73,0,0,1-5.55-1,11.92,11.92,0,0,1-4-2.62A10.86,10.86,0,0,1,88,133.06,12,12,0,0,1,87.13,128.57Z"/><path class="cls-4" d="M129.73,140.17l-5.29-8.35-1.71,1.81,0,6.51-8.51,0,.14-31.67,8.51,0-.08,17.32,6.3-8.43,9,0-8.15,9.94,8.85,12.89Z"/></g></g></svg>