<?xml version="1.0" standalone="no"?>
<!DOCTYPE svg PUBLIC "-//W3C//DTD SVG 20010904//EN"
 "http://www.w3.org/TR/2001/REC-SVG-20010904/DTD/svg10.dtd">
<svg version="1.0" xmlns="http://www.w3.org/2000/svg"
 width="1233.000000pt" height="1233.000000pt" viewBox="0 0 1233.000000 1233.000000"
 preserveAspectRatio="xMidYMid meet">
<metadata>
Created by potrace 1.11, written by Peter Selinger 2001-2013
</metadata>
<g transform="translate(0.000000,1233.000000) scale(0.100000,-0.100000)"
fill="#000000" stroke="none">
<path d="M6630 12013 c-23 -5 -71 -34 -95 -58 -6 -5 -18 -26 -28 -47 -47 -100
17 -221 130 -246 147 -33 275 109 219 242 -36 86 -123 128 -226 109z"/>
<path d="M5765 11972 c-135 -24 -205 -138 -154 -252 52 -116 212 -146 307 -57
49 46 66 134 38 200 -12 30 -77 97 -94 97 -4 0 -23 4 -42 8 -19 5 -44 6 -55 4z"/>
<path d="M4822 11829 c-43 -13 -104 -75 -118 -119 -13 -46 -1 -121 26 -158 58
-78 172 -99 256 -46 153 95 97 315 -85 329 -25 2 -61 0 -79 -6z"/>
<path d="M7652 11788 c-106 -51 -133 -183 -56 -268 76 -84 219 -85 292 -1 71
82 45 218 -51 267 -49 26 -134 27 -185 2z"/>
<path d="M4063 11525 c-98 -45 -131 -141 -83 -240 37 -76 129 -117 213 -94 89
23 140 87 140 175 0 136 -141 219 -270 159z"/>
<path d="M6039 11488 c-98 -37 -119 -170 -34 -227 89 -60 215 -2 215 99 0 93
-95 160 -181 128z"/>
<path d="M8776 11379 c-177 -41 -190 -280 -20 -345 46 -18 115 -14 156 7 32
17 77 65 88 95 17 43 12 113 -11 154 -23 41 -91 90 -125 90 -12 0 -28 2 -36 4
-7 2 -31 0 -52 -5z"/>
<path d="M6880 11278 c-86 -52 -82 -181 6 -223 122 -58 245 57 185 171 -37 69
-124 93 -191 52z"/>
<path d="M7965 11222 c-34 -8 -63 -32 -79 -67 -47 -98 25 -193 136 -183 85 9
135 79 115 161 -17 65 -98 107 -172 89z"/>
<path d="M3243 11120 c-125 -56 -147 -223 -40 -304 74 -56 182 -54 246 6 98
92 73 251 -49 300 -43 18 -115 17 -157 -2z"/>
<path d="M4102 10920 c-69 -42 -79 -136 -21 -196 54 -55 127 -57 189 -5 29 24
34 35 38 84 4 57 4 58 -37 97 -37 35 -48 40 -89 40 -29 0 -59 -8 -80 -20z"/>
<path d="M5894 10933 c-33 -6 -84 -66 -90 -104 -8 -48 17 -104 58 -129 26 -17
45 -20 87 -17 47 3 59 9 88 40 26 29 33 45 33 78 0 97 -73 152 -176 132z"/>
<path d="M9671 10740 c-150 -64 -162 -247 -21 -320 96 -50 216 -14 261 78 41
83 7 187 -73 228 -38 20 -134 28 -167 14z"/>
<path d="M4866 10635 c-49 -17 -74 -41 -85 -82 -25 -90 33 -166 127 -166 75
-1 127 44 136 117 3 26 -3 46 -24 79 -27 43 -39 50 -106 63 -6 1 -27 -4 -48
-11z"/>
<path d="M7548 10439 c-117 -60 -86 -227 45 -243 51 -6 117 29 139 74 53 112
-72 227 -184 169z"/>
<path d="M3843 10407 c-85 -48 -90 -169 -8 -223 37 -24 107 -26 143 -4 85 52
89 172 8 221 -35 22 -110 25 -143 6z"/>
<path d="M5663 10288 c-35 -9 -80 -56 -89 -95 -14 -56 44 -151 94 -154 9 0 26
-2 37 -4 33 -6 102 31 120 64 56 109 -41 222 -162 189z"/>
<path d="M2868 10216 c-60 -21 -88 -60 -88 -121 0 -50 22 -87 67 -112 63 -35
140 -17 179 42 68 105 -38 234 -158 191z"/>
<path d="M9935 10061 c-132 -59 -91 -244 54 -244 81 -1 136 51 135 127 -1 97
-100 157 -189 117z"/>
<path d="M10507 10050 c-93 -17 -157 -86 -157 -172 0 -104 78 -178 186 -178
48 0 107 20 137 48 75 68 68 203 -13 264 -38 28 -109 45 -153 38z"/>
<path d="M2005 10031 c-137 -62 -148 -236 -21 -315 85 -53 202 -30 256 51 20
30 25 49 25 103 0 57 -4 72 -28 103 -15 20 -42 44 -59 53 -47 24 -126 27 -173
5z"/>
<path d="M9004 10010 c-64 -26 -93 -123 -55 -186 60 -98 226 -71 247 42 19
103 -91 185 -192 144z"/>
<path d="M7953 9946 c-91 -41 -92 -180 -2 -228 81 -44 172 -3 198 88 20 72
-36 144 -116 151 -28 2 -61 -3 -80 -11z"/>
<path d="M3644 9810 c-98 -30 -119 -170 -34 -226 63 -42 158 -28 194 29 68
105 -36 234 -160 197z"/>
<path d="M6872 9760 c-85 -52 -89 -169 -8 -220 71 -43 159 -20 195 53 30 60
12 126 -45 164 -37 24 -105 25 -142 3z"/>
<path d="M5535 9483 c-76 -20 -117 -106 -86 -180 15 -36 49 -60 100 -72 85
-19 168 56 157 143 -9 73 -96 129 -171 109z"/>
<path d="M4590 9343 c-58 -16 -89 -38 -105 -74 -32 -71 -2 -144 73 -176 58
-24 137 4 169 60 29 51 1 153 -47 173 -29 12 -75 21 -90 17z"/>
<path d="M11177 9252 c-39 -16 -74 -48 -93 -84 -17 -33 -18 -107 -2 -145 36
-83 139 -125 237 -97 173 50 168 292 -7 333 -55 13 -92 11 -135 -7z"/>
<path d="M10494 9124 c-22 -8 -40 -14 -41 -14 -1 0 -11 -13 -23 -30 -83 -117
50 -259 175 -187 140 80 42 284 -111 231z"/>
<path d="M1335 9065 c-73 -40 -105 -93 -105 -172 1 -91 90 -174 185 -172 185
3 260 220 114 328 -42 31 -149 40 -194 16z"/>
<path d="M3332 9050 c-125 -56 -92 -234 45 -245 104 -8 175 89 133 181 -30 68
-108 95 -178 64z"/>
<path d="M8477 8944 c-41 -27 -57 -57 -57 -105 0 -129 183 -177 250 -66 74
121 -74 252 -193 171z"/>
<path d="M2475 8776 c-73 -33 -104 -120 -65 -183 63 -104 229 -75 250 44 8 44
-17 104 -53 127 -33 22 -97 28 -132 12z"/>
<path d="M5645 8453 c-75 -20 -118 -112 -84 -185 42 -94 205 -88 245 8 43 103
-50 205 -161 177z"/>
<path d="M1632 8340 c-34 -21 -62 -72 -62 -111 0 -32 27 -82 56 -103 32 -23
110 -29 145 -10 31 16 66 60 70 89 6 40 -12 92 -41 120 -40 39 -120 46 -168
15z"/>
<path d="M11486 8318 c-87 -19 -151 -104 -141 -187 8 -62 42 -107 102 -137 89
-44 181 -22 246 58 25 31 30 46 30 93 0 120 -110 200 -237 173z"/>
<path d="M3030 8130 c-71 -13 -107 -48 -115 -115 -15 -112 121 -182 218 -113
105 75 26 250 -103 228z"/>
<path d="M9873 8124 c-66 -23 -98 -81 -83 -151 34 -147 265 -122 264 28 0 50
-20 85 -61 110 -42 26 -71 29 -120 13z"/>
<path d="M10807 8092 c-40 -25 -67 -84 -57 -128 11 -47 36 -83 68 -96 126 -50
245 60 187 173 -33 63 -133 89 -198 51z"/>
<path d="M911 8084 c-114 -34 -166 -172 -99 -268 39 -54 69 -72 140 -81 156
-20 266 157 173 279 -52 70 -130 95 -214 70z"/>
<path d="M8889 8085 c-77 -42 -86 -152 -18 -209 60 -51 148 -42 195 20 46 60
29 149 -36 188 -34 20 -106 20 -141 1z"/>
<path d="M8145 8038 c-100 -53 -111 -174 -22 -228 38 -24 97 -26 141 -5 83 40
89 168 10 220 -32 20 -102 27 -129 13z"/>
<path d="M7395 7936 c-42 -18 -62 -44 -73 -92 -18 -80 34 -145 120 -151 112
-8 176 86 128 187 -26 57 -111 84 -175 56z"/>
<path d="M6500 7732 c-83 -37 -109 -124 -59 -196 24 -36 42 -45 94 -52 42 -6
69 2 104 32 67 56 58 160 -18 202 -38 22 -91 27 -121 14z"/>
<path d="M5800 7548 c-150 -42 -117 -254 40 -252 55 1 94 24 117 68 53 103
-43 216 -157 184z"/>
<path d="M5160 7343 c-89 -29 -126 -116 -80 -190 45 -75 154 -87 215 -23 37
39 45 111 17 156 -30 48 -101 74 -152 57z"/>
<path d="M11005 7333 c-40 -22 -63 -51 -70 -94 -22 -126 140 -203 229 -110 35
36 47 94 30 138 -28 66 -124 100 -189 66z"/>
<path d="M2789 7297 c-128 -64 -79 -240 67 -240 54 0 107 38 124 87 21 64 -17
142 -77 160 -51 16 -71 15 -114 -7z"/>
<path d="M4285 7088 c-80 -47 -97 -145 -34 -207 65 -66 188 -44 221 38 14 35
10 91 -8 119 -35 53 -128 79 -179 50z"/>
<path d="M1348 7084 c-2 -1 -49 -4 -106 -5 -56 -1 -121 -5 -144 -9 -24 -5 -59
-11 -78 -14 -238 -38 -552 -213 -707 -392 -26 -31 -53 -62 -60 -69 -21 -22
-100 -149 -132 -212 -30 -61 -78 -193 -88 -243 -27 -135 -30 -180 -28 -325 2
-88 8 -185 14 -215 5 -30 13 -68 16 -85 26 -132 126 -344 220 -469 146 -195
365 -343 605 -411 3 -1 24 -7 47 -13 137 -40 416 -49 543 -18 152 36 305 107
386 179 l22 18 0 -96 c0 -53 3 -99 6 -103 12 -11 566 -9 568 3 1 12 6 491 8
959 1 180 -2 332 -7 337 -6 6 -879 15 -1020 10 l-22 -1 2 -242 2 -242 185 -3
c102 -1 198 -2 214 -3 l29 0 -24 -26 c-33 -36 -133 -106 -196 -138 -148 -74
-350 -91 -500 -40 -108 36 -190 96 -258 186 -93 124 -129 243 -129 428 1 98 5
142 23 205 60 214 201 367 390 425 71 21 209 23 291 4 146 -34 295 -136 373
-257 17 -26 34 -46 39 -45 11 4 507 368 512 376 7 12 -81 137 -140 196 -95 95
-228 188 -339 236 -72 31 -213 76 -265 85 -25 4 -53 9 -64 11 -17 3 -64 9
-153 18 -18 2 -34 2 -35 0z"/>
<path d="M9083 6990 c-110 -24 -148 -148 -68 -219 79 -69 203 -36 224 61 21
92 -64 177 -156 158z"/>
<path d="M11701 6854 c-47 -15 -101 -61 -117 -100 -46 -109 32 -230 155 -242
119 -11 211 67 211 178 0 117 -131 203 -249 164z"/>
<path d="M3658 6456 c-1 -2 -48 -6 -103 -10 -480 -30 -837 -334 -910 -774 -14
-85 -14 -281 0 -347 31 -152 97 -302 175 -400 131 -164 312 -279 525 -334 218
-56 518 -47 710 21 151 53 283 133 378 230 172 174 259 394 261 653 1 262 -81
477 -248 653 -69 73 -136 123 -236 176 -140 74 -273 111 -440 122 -47 3 -90 7
-97 9 -6 2 -13 2 -15 1z m155 -598 c120 -61 188 -205 181 -382 -8 -164 -78
-283 -203 -339 -62 -28 -176 -29 -249 -2 -59 22 -132 87 -162 145 -71 139 -60
358 23 481 27 40 110 105 146 114 99 25 193 19 264 -17z"/>
<path d="M4718 6409 c-7 -4 10 -67 45 -170 54 -160 232 -681 364 -1064 36
-104 94 -275 129 -380 35 -104 68 -195 72 -202 6 -9 99 -13 375 -14 202 -2
368 -1 370 2 4 4 31 81 162 454 37 105 92 260 122 345 30 85 85 243 123 350
38 107 96 274 130 370 98 276 103 291 97 297 -11 11 -617 10 -626 -1 -4 -6
-25 -76 -46 -156 -71 -269 -122 -464 -185 -700 -34 -129 -74 -279 -88 -332
-14 -54 -27 -96 -29 -94 -2 2 -5 12 -7 22 -2 11 -75 301 -162 647 l-158 627
-261 1 c-143 0 -295 1 -338 2 -44 1 -84 -1 -89 -4z"/>
<path d="M9128 5998 c-61 -35 -81 -104 -49 -166 62 -121 257 -76 254 59 -2
102 -113 160 -205 107z"/>
<path d="M10133 5984 c-119 -59 -73 -244 61 -244 79 0 136 54 136 130 0 99
-104 160 -197 114z"/>
<path d="M11040 5932 c-82 -36 -108 -128 -56 -196 76 -100 246 -47 246 76 0
35 -32 90 -64 109 -31 19 -96 24 -126 11z"/>
<path d="M8220 5898 c-73 -44 -90 -141 -34 -200 85 -88 234 -33 234 87 0 98
-117 164 -200 113z"/>
<path d="M11663 5845 c-160 -96 -91 -335 97 -335 76 0 138 37 171 102 34 66
17 161 -38 210 -58 53 -163 63 -230 23z"/>
<path d="M7132 5770 c-52 -23 -76 -61 -76 -115 1 -50 33 -101 73 -116 63 -24
145 -4 175 44 72 112 -47 243 -172 187z"/>
<path d="M10907 5260 c-16 -5 -39 -20 -53 -35 -67 -73 -30 -188 69 -214 86
-21 172 50 164 134 -6 55 -12 67 -51 93 -39 26 -89 35 -129 22z"/>
<path d="M9175 5182 c-39 -8 -84 -52 -95 -90 -16 -62 -1 -106 50 -142 43 -31
89 -33 141 -7 50 25 73 63 72 118 -2 80 -85 139 -168 121z"/>
<path d="M11459 5173 c-95 -32 -145 -122 -118 -213 41 -135 233 -173 328 -65
123 140 -27 339 -210 278z"/>
<path d="M6558 4695 c-124 -84 -25 -270 121 -226 55 16 83 51 89 111 5 58 -11
90 -61 120 -45 28 -104 26 -149 -5z"/>
<path d="M10515 4440 c-55 -22 -88 -91 -72 -150 16 -60 50 -88 117 -96 99 -12
175 87 137 179 -27 63 -114 95 -182 67z"/>
<path d="M11077 4408 c-107 -23 -165 -96 -155 -198 9 -89 91 -160 187 -162 54
-1 129 39 159 84 49 74 30 190 -40 239 -44 32 -106 47 -151 37z"/>
<path d="M8669 4242 c-1 -21 -7 -1220 -10 -1962 l-2 -555 341 -3 342 -3 1 243
c1 134 1 247 0 251 -3 15 38 71 88 121 l49 49 48 -77 c27 -43 65 -103 85 -134
20 -32 91 -145 159 -252 67 -107 124 -197 126 -199 2 -2 165 -5 363 -6 255 -1
358 2 354 9 -10 17 -147 220 -153 226 -3 3 -21 30 -42 60 -43 66 -164 242
-353 515 -76 110 -139 207 -139 217 -1 12 460 588 617 772 l19 21 -109 5 c-59
3 -220 5 -358 5 l-249 0 -123 -165 c-68 -91 -129 -172 -136 -180 -7 -8 -61
-81 -121 -162 -60 -82 -112 -148 -115 -148 -3 0 -5 308 -3 684 l4 684 -341 1
c-315 0 -341 -1 -342 -17z"/>
<path d="M1842 3423 c-2 -439 -4 -993 -5 -1231 -2 -380 -1 -433 13 -436 8 -2
166 -4 350 -5 l336 -1 1 313 c1 171 2 389 3 482 l0 170 398 -2 c218 -1 409 -2
425 -2 l27 -1 -2 -480 c-2 -315 0 -480 7 -481 6 -1 161 -2 345 -4 216 -2 337
1 341 7 4 6 7 265 8 577 1 311 3 860 5 1219 2 364 0 655 -5 658 -12 7 -672 10
-684 2 -6 -4 -10 -166 -10 -452 0 -288 -4 -447 -10 -449 -8 -3 -745 0 -826 2
-15 1 -16 42 -14 455 l3 454 -352 1 -351 1 -3 -797z"/>
<path d="M5109 3596 c-2 -2 -29 -6 -59 -10 -30 -3 -66 -8 -80 -11 -153 -30
-215 -49 -330 -98 -41 -17 -97 -44 -123 -59 -26 -15 -52 -28 -58 -28 -24 0
-17 -34 27 -126 25 -54 68 -146 95 -203 48 -101 50 -103 72 -89 97 63 240 128
335 153 175 47 385 33 469 -30 48 -37 75 -97 81 -179 4 -56 2 -68 -9 -63 -115
47 -250 67 -409 62 -162 -6 -240 -20 -355 -65 -303 -120 -459 -366 -412 -655
18 -114 71 -211 162 -302 172 -169 452 -231 714 -157 121 34 245 109 344 207
36 37 68 63 70 59 3 -4 8 -23 12 -42 21 -95 89 -186 164 -217 99 -42 241 -53
396 -32 146 19 131 -16 133 301 l2 274 -42 14 c-79 28 -83 41 -85 293 -3 375
-5 398 -44 520 -46 145 -158 280 -299 358 -74 42 -208 89 -295 103 -16 3 -50
9 -75 14 -45 8 -393 15 -401 8z m345 -1066 c44 -11 80 -20 82 -20 9 0 -1 -160
-12 -181 -38 -75 -159 -137 -285 -146 -149 -11 -249 56 -249 166 0 54 12 83
55 126 83 83 228 102 409 55z"/>
<path d="M7310 3575 c-105 -17 -152 -31 -250 -72 -371 -157 -582 -493 -566
-901 5 -121 8 -139 37 -237 104 -350 391 -592 779 -656 136 -23 371 -17 505
12 189 41 381 149 501 283 43 47 136 177 131 182 -5 4 -646 194 -657 194 -6 0
-24 -15 -40 -33 -16 -18 -55 -46 -87 -63 -50 -25 -69 -29 -138 -29 -95 1 -167
29 -229 91 -124 124 -140 407 -31 555 120 162 356 175 493 28 l31 -33 133 38
c73 21 144 42 158 46 26 9 138 42 155 46 47 10 202 58 208 64 13 12 -87 151
-160 221 -154 148 -323 231 -543 264 -105 16 -330 16 -430 0z"/>
<path d="M6726 1200 c-9 -4 -12 -83 -14 -346 l-1 -342 54 0 c51 1 55 3 64 30
l10 29 23 -21 c69 -66 182 -61 250 10 82 87 85 306 5 397 -39 45 -79 62 -138
59 -44 -2 -113 -35 -123 -59 -2 -7 -5 45 -5 115 l-1 126 -55 4 c-31 1 -62 1
-69 -2z m248 -300 c45 -17 63 -76 57 -193 0 -18 -14 -42 -35 -63 -39 -39 -75
-39 -116 2 -22 21 -25 34 -27 107 -3 93 17 142 59 150 13 2 26 5 30 6 4 0 18
-3 32 -9z"/>
<path d="M7284 855 l0 -345 68 0 68 0 1 128 c0 70 1 225 2 345 l2 217 -70 0
-70 0 -1 -345z"/>
<path d="M11843 1039 c-13 -37 -27 -56 -53 -72 -44 -26 -48 -33 -42 -63 3 -19
10 -24 36 -24 l31 0 0 -153 c0 -146 1 -155 24 -189 31 -45 69 -58 152 -54 95
5 105 13 101 74 l-4 50 -31 -9 c-95 -27 -107 -10 -107 152 0 146 -10 131 91
131 l45 -1 3 50 c1 34 -2 49 -11 50 -7 1 -33 3 -58 4 -25 1 -51 3 -57 4 -9 1
-13 18 -13 51 l0 50 -45 0 c-44 0 -44 0 -62 -51z"/>
<path d="M400 1034 c-124 -37 -185 -188 -141 -346 15 -52 78 -120 129 -139 60
-23 250 -14 277 13 7 6 12 108 5 108 -3 0 -25 -7 -50 -16 -25 -9 -71 -16 -103
-16 -80 0 -119 28 -130 93 l-5 24 159 0 c179 0 164 -8 160 80 -2 52 -19 103
-44 138 -45 60 -165 89 -257 61z m141 -113 c36 -36 39 -71 7 -72 -41 -1 -112
-1 -135 0 -58 3 3 95 65 99 25 2 40 -5 63 -27z"/>
<path d="M1034 1039 c-23 -6 -54 -23 -72 -40 l-31 -30 -6 33 c-6 33 -7 33 -61
34 l-54 0 -1 -160 c-1 -171 -1 -316 0 -328 1 -5 31 -8 69 -8 l67 0 1 153 c1
83 7 164 13 179 22 57 95 78 134 40 19 -20 21 -33 21 -197 1 -109 5 -175 11
-176 27 -3 117 0 121 4 2 2 6 73 7 158 3 156 10 189 46 216 25 19 78 16 101
-7 21 -21 23 -40 22 -272 0 -85 2 -98 16 -99 20 -1 103 -1 115 0 4 1 7 88 7
195 -2 212 -8 240 -62 279 -58 43 -198 31 -238 -20 l-18 -23 -32 30 c-17 16
-48 32 -68 36 -20 3 -44 7 -52 9 -8 1 -33 -1 -56 -6z"/>
<path d="M1699 1020 c0 -8 -2 -169 -3 -357 l-2 -341 64 -4 c35 -2 67 1 70 7 3
5 5 67 4 137 l-3 128 26 -24 c47 -44 138 -52 200 -18 64 34 103 124 103 237 0
118 -39 204 -109 239 -59 29 -160 11 -201 -37 -17 -19 -18 -19 -28 7 -5 15
-10 30 -10 34 0 4 -25 7 -55 7 -42 0 -55 -4 -56 -15z m278 -105 c28 -20 40
-58 41 -130 0 -97 -30 -145 -92 -145 -38 0 -56 10 -72 43 -34 65 -20 203 23
234 23 17 74 16 100 -2z"/>
<path d="M2390 1024 c-103 -31 -167 -152 -148 -285 20 -148 117 -226 265 -213
126 12 196 85 209 221 17 163 -73 282 -219 288 -34 2 -82 -3 -107 -11z m147
-116 c25 -20 36 -52 39 -108 4 -68 -9 -121 -36 -145 -29 -26 -95 -24 -125 5
-56 53 -44 229 19 258 25 11 84 6 103 -10z"/>
<path d="M2774 1002 c4 -15 35 -127 69 -250 l62 -222 75 2 75 3 22 95 c12 52
25 104 27 115 20 95 39 166 42 163 2 -2 22 -87 45 -189 22 -101 42 -185 43
-186 6 -7 138 -4 145 3 7 7 53 159 106 344 2 8 12 41 21 73 9 31 14 60 11 63
-11 12 -117 11 -125 0 -10 -13 -67 -232 -77 -293 -8 -49 -20 -57 -23 -15 -1
15 -4 36 -6 47 -5 24 -34 152 -41 180 -3 11 -8 35 -11 53 -3 17 -9 32 -13 33
-3 1 -37 2 -74 4 -54 2 -69 -1 -76 -14 -10 -19 -71 -263 -77 -305 -6 -47 -11
-40 -22 31 -6 37 -13 77 -16 88 -3 11 -16 61 -28 110 l-24 90 -68 2 -68 3 6
-28z"/>
<path d="M3693 1005 c-86 -43 -124 -122 -119 -248 4 -116 54 -191 147 -222 58
-20 190 -18 242 2 36 15 37 16 37 69 l0 53 -36 -15 c-19 -8 -64 -18 -98 -21
-91 -8 -139 21 -152 93 l-4 24 161 0 162 0 -5 73 c-5 80 -25 128 -71 170 -60
54 -179 64 -264 22z m169 -89 c16 -11 38 -56 38 -75 0 -9 -168 -14 -181 -5
-11 7 10 55 34 77 23 20 84 22 109 3z"/>
<path d="M4344 1011 c-22 -10 -50 -31 -61 -47 l-21 -29 -7 30 c-13 57 -12 56
-67 53 l-52 -3 0 -245 -1 -244 63 -1 c35 -1 66 3 69 8 3 5 5 61 5 125 -2 190
18 228 123 239 47 5 55 9 56 27 5 107 7 101 -31 104 -19 1 -53 -6 -76 -17z"/>
<path d="M5185 1020 c-107 -24 -170 -109 -174 -236 -4 -124 36 -202 129 -250
43 -22 183 -25 251 -6 l46 14 1 53 0 53 -49 -14 c-114 -34 -195 -21 -224 36
-32 62 -27 64 142 63 108 -1 153 2 156 10 11 33 -3 132 -25 175 -42 81 -152
125 -253 102z m92 -100 c30 -11 50 -37 55 -75 3 -18 -3 -20 -80 -20 -45 0 -87
2 -93 5 -19 12 12 71 45 86 38 16 36 16 73 4z"/>
<path d="M5575 1010 c-1 -3 -3 -114 -4 -247 l0 -243 29 -1 c38 -1 76 -1 95 0
13 1 15 24 15 140 0 163 5 192 36 226 31 33 94 35 124 3 22 -24 22 -27 21
-245 -1 -77 3 -123 9 -124 5 0 24 -1 40 -1 17 0 44 1 60 1 l30 1 0 185 c0 215
-8 248 -71 289 -31 21 -51 26 -99 26 -65 0 -131 -25 -149 -57 -8 -16 -11 -15
-20 10 -6 16 -11 31 -11 35 0 8 -100 10 -105 2z"/>
<path d="M6285 1014 c-41 -10 -106 -36 -103 -43 2 -3 12 -25 21 -47 l18 -42
62 20 c99 31 157 12 157 -51 0 -25 -2 -26 -72 -29 -170 -5 -239 -57 -233 -173
4 -90 59 -140 154 -141 63 0 87 8 133 44 l36 28 7 -30 c4 -16 10 -30 13 -31
42 -7 92 -4 95 5 2 6 3 94 3 196 -1 214 -8 237 -85 275 -41 21 -151 31 -206
19z m155 -310 c0 -51 -44 -94 -98 -94 -43 0 -69 21 -67 55 2 50 39 73 118 74
l47 1 0 -36z"/>
<path d="M7677 999 c-31 -11 -64 -31 -84 -52 -56 -62 -77 -181 -51 -285 17
-68 87 -135 157 -152 63 -15 186 -8 228 12 24 12 28 19 29 58 1 25 -1 48 -3
52 -2 4 -21 1 -41 -8 -53 -22 -145 -26 -182 -7 -30 15 -60 58 -60 88 0 16 45
19 243 15 l79 -1 -5 73 c-6 87 -11 101 -49 150 -50 64 -165 89 -261 57z m139
-100 c18 -6 44 -53 44 -79 0 -9 -174 -6 -178 3 -10 23 12 66 41 81 30 15 44
14 93 -5z"/>
<path d="M8706 995 c-61 -21 -89 -46 -119 -106 -24 -47 -28 -69 -28 -135 -1
-128 31 -196 110 -235 53 -27 175 -30 232 -6 35 14 35 16 37 75 l2 61 -45 -20
c-65 -29 -141 -23 -168 12 -26 36 -36 99 -26 156 17 86 72 117 164 89 27 -8
50 -14 51 -13 6 7 34 82 34 92 0 35 -169 56 -244 30z"/>
<path d="M9190 1000 c-115 -33 -174 -128 -166 -270 4 -75 15 -108 52 -155 68
-89 239 -109 333 -38 31 24 68 74 71 98 1 6 6 18 11 27 11 20 13 118 4 162
-14 68 -58 127 -119 158 -41 21 -142 31 -186 18z m137 -132 c43 -40 47 -171 7
-225 -38 -50 -110 -50 -148 1 -28 37 -30 168 -3 210 32 48 100 55 144 14z"/>
<path d="M9836 995 c-26 -7 -60 -24 -74 -38 l-26 -27 -11 33 c-10 30 -12 32
-60 32 l-50 -1 -3 -247 -3 -247 70 0 70 0 0 139 c0 76 4 157 11 180 15 58 61
84 121 68 43 -11 51 -45 49 -224 l-1 -163 70 0 70 0 0 190 c0 176 -2 192 -23
231 -37 71 -114 98 -210 74z"/>
<path d="M10250 990 l-45 -5 0 -242 -1 -243 68 0 68 0 1 88 c1 221 10 263 60
291 34 19 95 7 111 -22 8 -15 12 -78 13 -192 l0 -170 68 0 c65 -1 67 0 68 25
1 14 1 100 1 193 0 146 -3 172 -20 205 -48 94 -207 112 -289 33 l-23 -21 -6
24 c-9 35 -23 42 -74 36z"/>
<path d="M10919 987 c-100 -38 -142 -106 -146 -237 -3 -102 22 -169 80 -213
68 -52 206 -67 303 -33 38 13 39 14 40 65 0 28 -2 51 -5 51 -3 0 -28 -7 -55
-15 -27 -8 -73 -15 -102 -15 -45 0 -59 5 -84 28 -16 15 -33 41 -36 58 l-6 32
156 -2 c96 0 157 3 159 9 5 13 1 102 -7 139 -7 37 -53 95 -95 120 -42 24 -153
31 -202 13z m131 -97 c21 -11 39 -40 45 -71 4 -18 -3 -19 -90 -19 -102 0 -105
3 -76 59 21 39 79 53 121 31z"/>
<path d="M11475 990 c-114 -26 -169 -109 -169 -255 -1 -83 18 -151 52 -189 51
-56 187 -80 277 -49 l49 18 2 58 c1 31 0 57 -2 57 -2 0 -21 -7 -43 -16 -83
-33 -151 -22 -178 30 -22 42 -22 151 0 192 9 18 29 36 44 41 31 11 88 7 114
-8 39 -20 48 -10 73 77 5 18 0 23 -36 34 -50 15 -140 20 -183 10z"/>
<path d="M4552 652 c-22 -15 -31 -66 -16 -100 17 -42 60 -52 116 -28 34 15 40
85 11 119 -17 18 -87 24 -111 9z"/>
<path d="M8100 632 c-29 -24 -33 -84 -8 -111 19 -21 32 -25 78 -23 50 3 79 81
46 125 -19 25 -90 30 -116 9z"/>
<path d="M12190 605 c-26 -28 -26 -79 0 -105 34 -34 126 -21 131 18 0 4 3 19
5 35 11 64 -89 102 -136 52z"/>
</g>
</svg>
