<?xml version="1.0" standalone="no"?>
<!DOCTYPE svg PUBLIC "-//W3C//DTD SVG 20010904//EN"
 "http://www.w3.org/TR/2001/REC-SVG-20010904/DTD/svg10.dtd">
<svg version="1.0" xmlns="http://www.w3.org/2000/svg"
 width="2000.000000pt" height="2000.000000pt" viewBox="0 0 2000.000000 2000.000000"
 preserveAspectRatio="xMidYMid meet">
<metadata>
Created by potrace 1.11, written by Peter Selinger 2001-2013
</metadata>
<g transform="translate(0.000000,2000.000000) scale(0.100000,-0.100000)"
fill="#000000" stroke="none">
<path d="M9420 17431 c-278 -109 -1198 -467 -2045 -796 -2059 -799 -5422
-2105 -6242 -2423 l-661 -257 4729 -3 c2601 -1 6857 -1 9458 0 l4730 3 -577
224 c-317 123 -899 349 -1292 501 -393 153 -2027 787 -3630 1410 -1603 623
-3147 1222 -3430 1332 -283 110 -519 202 -525 203 -5 2 -237 -86 -515 -194z"/>
<path d="M750 13535 l0 -215 9180 0 9180 0 0 215 0 215 -9180 0 -9180 0 0
-215z"/>
<path d="M1730 13246 c-171 -50 -293 -186 -322 -359 -47 -287 215 -548 502
-499 229 39 382 231 368 459 -12 177 -116 321 -278 384 -69 26 -205 34 -270
15z"/>
<path d="M4017 13241 c-205 -68 -335 -279 -300 -487 62 -362 505 -501 754
-237 208 220 145 565 -130 701 -67 33 -82 37 -170 39 -74 2 -110 -1 -154 -16z"/>
<path d="M6338 13241 c-81 -26 -135 -61 -196 -125 -137 -145 -156 -375 -43
-539 192 -280 608 -252 758 51 37 75 38 78 38 191 0 110 -2 120 -32 184 -38
79 -114 163 -181 200 -105 57 -238 72 -344 38z"/>
<path d="M8639 13241 c-206 -66 -339 -285 -300 -496 25 -137 118 -258 247
-321 170 -85 373 -46 509 97 268 280 66 741 -323 738 -45 0 -100 -8 -133 -18z"/>
<path d="M10971 13244 c-124 -33 -227 -121 -284 -241 -30 -64 -32 -74 -32
-184 0 -113 1 -116 38 -191 160 -325 623 -327 782 -4 90 182 55 380 -92 518
-112 104 -265 142 -412 102z"/>
<path d="M13275 13246 c-170 -54 -287 -188 -315 -359 -21 -134 19 -262 115
-365 208 -225 580 -173 715 101 42 86 57 178 43 261 -39 227 -216 377 -442
375 -42 0 -94 -6 -116 -13z"/>
<path d="M15593 13245 c-76 -21 -123 -47 -187 -105 -222 -204 -163 -586 110
-715 29 -14 83 -30 121 -37 290 -49 552 211 504 500 -44 259 -297 424 -548
357z"/>
<path d="M17885 13243 c-122 -44 -214 -127 -268 -241 -30 -63 -32 -73 -32
-182 0 -109 2 -119 32 -182 162 -343 637 -344 801 -1 35 74 37 83 37 178 0 80
-5 112 -23 160 -43 115 -139 213 -252 257 -77 30 -226 35 -295 11z"/>
<path d="M1228 12310 c-133 -17 -190 -50 -224 -129 -14 -32 -16 -92 -10 -511
10 -812 32 -1282 62 -1345 33 -70 126 -105 192 -71 l30 16 6 -73 c3 -39 15
-295 26 -567 46 -1113 73 -1621 92 -1682 16 -56 54 -86 122 -99 37 -6 173 -9
360 -7 280 3 303 4 335 23 53 31 69 74 81 215 13 170 33 578 71 1450 17 404
33 736 34 738 2 2 15 -4 29 -13 19 -13 39 -16 72 -12 87 9 131 65 144 180 25
208 58 1653 40 1725 -15 62 -53 110 -105 133 -56 25 -221 42 -318 34 l-79 -7
-32 -52 c-163 -259 -224 -351 -249 -372 -31 -26 -83 -32 -118 -14 -22 12 -81
98 -203 295 l-87 140 -52 7 c-67 8 -147 7 -219 -2z"/>
<path d="M3501 12309 c-85 -14 -136 -42 -168 -90 l-28 -43 1 -480 c1 -468 16
-1036 34 -1244 9 -114 26 -153 80 -189 39 -27 114 -31 147 -8 21 15 21 14 27
-93 4 -59 15 -323 26 -587 27 -649 58 -1289 71 -1465 11 -164 28 -213 81 -245
31 -19 55 -20 348 -23 173 -2 335 0 359 3 55 8 105 54 120 111 16 62 50 704
98 1862 9 232 20 427 24 433 5 8 12 8 27 0 31 -17 93 -13 132 8 60 32 79 84
90 251 14 213 29 696 36 1187 7 394 6 436 -10 477 -24 63 -81 111 -147 126
-73 16 -234 24 -300 16 l-54 -8 -115 -185 c-139 -225 -172 -263 -225 -263 -54
0 -95 47 -233 267 -99 160 -116 181 -143 187 -44 9 -213 5 -278 -5z"/>
<path d="M5842 12309 c-126 -16 -187 -54 -218 -135 -16 -41 -17 -83 -10 -487
7 -497 22 -959 36 -1181 8 -123 14 -155 32 -188 38 -67 126 -97 190 -64 27 14
27 14 32 -17 3 -18 12 -214 21 -437 41 -1043 79 -1779 95 -1840 13 -47 35 -77
73 -98 29 -15 67 -17 372 -17 324 0 342 1 375 20 55 33 69 69 80 196 14 156
33 547 71 1444 18 418 33 761 34 763 1 1 15 -4 31 -13 42 -22 96 -19 134 8 52
35 70 67 80 143 26 195 60 1682 41 1751 -15 55 -55 102 -107 125 -59 26 -231
43 -323 32 l-73 -9 -112 -180 c-62 -99 -131 -199 -153 -222 -34 -37 -45 -43
-80 -43 -63 0 -74 14 -272 331 l-72 116 -61 7 c-74 7 -132 6 -216 -5z"/>
<path d="M8126 12309 c-82 -12 -138 -42 -172 -91 l-29 -41 1 -456 c2 -457 17
-1037 34 -1250 10 -128 28 -173 80 -208 39 -27 114 -31 147 -8 21 15 21 14 27
-58 3 -39 19 -398 36 -797 36 -858 57 -1264 70 -1380 10 -89 24 -117 74 -154
26 -20 42 -21 344 -24 174 -2 336 0 360 3 54 8 105 51 120 102 18 62 52 694
97 1813 8 212 18 413 21 448 6 61 6 62 27 47 30 -21 105 -19 144 5 54 33 73
85 83 229 16 214 30 693 36 1191 l6 475 -31 51 c-48 82 -141 113 -337 114
-118 0 -142 -7 -169 -49 -12 -20 -67 -106 -121 -191 -118 -187 -148 -220 -198
-220 -54 0 -89 40 -224 255 -87 138 -126 191 -143 196 -34 10 -213 8 -283 -2z"/>
<path d="M10460 12309 c-126 -16 -196 -63 -219 -146 -17 -61 -8 -734 19 -1433
12 -307 21 -383 48 -420 48 -64 125 -87 186 -55 16 9 30 14 31 13 1 -2 16
-346 34 -765 37 -885 57 -1283 71 -1442 11 -127 26 -163 80 -196 33 -19 51
-20 375 -20 324 0 342 1 375 20 53 31 70 71 81 182 13 142 34 564 69 1423 17
415 34 765 36 777 4 20 6 21 32 7 66 -34 157 -1 192 72 16 33 23 75 30 191 14
218 29 701 36 1185 7 386 6 431 -10 471 -19 51 -57 90 -107 111 -55 23 -212
39 -306 31 l-82 -7 -72 -116 c-114 -184 -190 -296 -213 -314 -12 -10 -38 -18
-63 -18 -37 0 -46 5 -80 44 -21 24 -89 125 -150 224 l-113 179 -61 7 c-75 7
-133 6 -219 -5z"/>
<path d="M12780 12313 c-107 -17 -134 -27 -170 -60 -74 -66 -74 -67 -66 -571
7 -495 21 -961 36 -1180 11 -163 28 -210 90 -244 35 -19 104 -21 142 -4 24 11
25 1 43 -464 42 -1074 79 -1768 96 -1834 15 -57 65 -103 120 -111 24 -3 187
-5 361 -3 447 4 413 -36 443 528 8 162 28 610 45 995 16 385 32 746 36 802 6
102 6 103 27 88 33 -23 108 -19 148 8 51 34 70 82 80 205 15 184 29 667 36
1183 l6 496 -22 47 c-42 86 -112 115 -301 123 -189 8 -173 18 -305 -192 -135
-216 -176 -265 -227 -265 -20 0 -46 9 -61 20 -22 18 -146 202 -248 372 -29 47
-40 57 -69 62 -38 6 -199 6 -240 -1z"/>
<path d="M15082 12310 c-92 -12 -152 -38 -185 -81 -47 -62 -50 -96 -43 -464
17 -857 37 -1354 57 -1415 30 -91 126 -135 203 -95 16 9 30 14 31 13 1 -2 17
-338 34 -748 37 -869 57 -1278 71 -1444 11 -135 28 -180 81 -211 32 -19 55
-20 335 -23 187 -2 323 1 360 7 68 13 106 43 122 99 18 60 52 701 97 1812 8
212 18 413 21 447 l6 63 30 -16 c38 -20 103 -14 142 11 50 33 67 84 77 229 14
214 29 699 36 1182 6 409 5 457 -11 496 -19 52 -68 101 -115 117 -60 20 -204
33 -293 26 l-87 -7 -52 -87 c-112 -183 -218 -340 -237 -350 -36 -19 -88 -13
-121 14 -16 14 -83 110 -147 213 -65 103 -122 193 -128 199 -15 17 -190 24
-284 13z"/>
<path d="M17360 12306 c-88 -17 -111 -28 -148 -70 -53 -61 -55 -82 -48 -516 8
-479 23 -979 36 -1195 11 -183 28 -233 90 -267 35 -19 96 -20 145 -4 21 7 21
2 43 -531 47 -1119 77 -1692 91 -1756 11 -47 34 -82 68 -104 25 -16 60 -18
378 -18 320 0 353 2 383 18 73 40 78 77 112 792 18 382 70 1571 70 1603 0 10
5 10 22 -2 28 -20 100 -21 138 -1 37 19 68 59 80 104 20 74 48 874 52 1481 2
305 1 316 -20 357 -27 52 -61 79 -126 99 -59 18 -252 30 -318 20 l-46 -7 -73
-117 c-116 -187 -186 -288 -215 -311 -36 -28 -85 -27 -121 3 -15 13 -84 114
-153 224 -118 189 -127 200 -160 206 -57 10 -210 5 -280 -8z"/>
<path d="M750 7565 l0 -215 9180 0 9180 0 0 215 0 215 -9180 0 -9180 0 0 -215z"/>
<path d="M310 6655 l0 -495 9620 0 9620 0 0 495 0 495 -9620 0 -9620 0 0 -495z"/>
<path d="M1840 5910 c-730 -91 -1243 -597 -1375 -1358 -62 -358 -22 -808 100
-1122 198 -514 574 -836 1080 -925 124 -22 379 -22 510 0 248 41 479 153 665
321 l40 36 0 -151 0 -151 315 0 315 0 0 900 0 900 -705 0 -705 0 0 -305 0
-305 365 0 c285 0 365 -3 365 -12 -1 -47 -44 -213 -70 -264 -168 -342 -742
-447 -1114 -204 -191 124 -312 340 -361 644 -78 480 47 956 307 1169 255 209
662 237 952 65 85 -50 204 -167 275 -268 29 -41 58 -74 64 -72 7 2 146 85 309
184 l298 180 -48 61 c-73 95 -288 306 -377 368 -221 157 -433 245 -705 295
-103 18 -396 26 -500 14z"/>
<path d="M8890 4185 l0 -1625 410 0 410 0 0 690 0 690 595 0 595 0 0 -690 0
-690 410 0 410 0 0 1625 0 1625 -410 0 -410 0 0 -585 0 -585 -595 0 -595 0 0
585 0 585 -410 0 -410 0 0 -1625z"/>
<path d="M17020 4185 l0 -1625 345 0 345 0 0 374 0 373 151 143 c88 84 153
139 157 133 4 -6 142 -239 307 -517 l300 -505 412 0 413 -1 -259 428 c-142
235 -351 581 -465 770 -181 300 -206 345 -194 360 12 16 507 530 717 745 l96
97 -430 -1 -430 0 -385 -410 -385 -409 -3 835 -2 835 -345 0 -345 0 0 -1625z"/>
<path d="M4940 5034 c-615 -52 -1009 -395 -1127 -980 -25 -126 -25 -462 0
-588 26 -126 63 -238 112 -337 58 -117 94 -168 194 -272 168 -174 379 -284
653 -339 149 -30 460 -32 608 -5 598 111 962 551 987 1192 11 293 -53 554
-194 788 -57 95 -187 236 -281 306 -140 104 -342 184 -537 215 -102 16 -333
27 -415 20z m266 -565 c94 -17 181 -64 255 -138 113 -113 169 -256 190 -482
24 -267 -37 -491 -176 -638 -106 -112 -225 -161 -392 -161 -160 0 -286 50
-390 156 -115 117 -180 292 -190 510 -16 333 103 602 310 704 106 52 267 72
393 49z"/>
<path d="M13010 5019 c-468 -42 -762 -263 -819 -619 -6 -36 -11 -77 -11 -92
l0 -28 354 0 354 0 7 33 c22 98 93 183 183 219 47 18 77 22 173 22 111 1 117
0 165 -29 38 -24 55 -43 79 -90 28 -56 30 -67 30 -179 l0 -119 -225 -43 c-254
-48 -496 -104 -615 -141 -305 -96 -524 -308 -591 -573 -23 -91 -15 -289 16
-380 41 -122 89 -200 180 -290 68 -68 102 -94 170 -128 257 -126 595 -120 865
16 58 29 160 93 256 161 18 13 19 10 19 -93 l0 -106 345 0 c190 0 345 2 345 5
0 2 -9 21 -20 42 -11 21 -24 70 -29 108 -7 42 -11 388 -11 878 0 893 0 898
-63 1026 -63 129 -204 248 -370 312 -212 81 -499 113 -787 88z m517 -1431
c-11 -213 -54 -329 -158 -429 -108 -104 -280 -166 -385 -140 -110 27 -183 97
-205 195 -26 116 39 219 182 291 52 27 527 197 568 204 2 1 1 -54 -2 -121z"/>
<path d="M15595 5019 c-274 -32 -509 -141 -684 -317 -258 -259 -390 -672 -352
-1107 46 -531 318 -895 784 -1050 463 -153 945 -38 1268 302 78 82 203 256
197 274 -2 6 -120 70 -263 144 l-259 133 -39 -80 c-99 -203 -315 -312 -529
-267 -227 48 -390 276 -429 597 -31 259 56 567 201 712 135 134 332 164 510
78 80 -39 193 -149 235 -230 l30 -56 255 145 c140 79 258 148 263 152 11 11
-84 141 -165 227 -162 171 -371 283 -610 329 -104 20 -308 27 -413 14z"/>
<path d="M6392 4943 c3 -10 178 -550 388 -1200 l384 -1183 370 0 371 0 384
1188 c211 653 386 1193 389 1200 3 10 -70 12 -359 10 l-363 -3 -118 -470
c-132 -527 -192 -791 -238 -1040 -39 -219 -41 -227 -46 -223 -2 2 -15 67 -29
144 -38 210 -70 354 -140 634 -50 199 -222 845 -251 943 -5 16 -32 17 -376 17
-348 0 -370 -1 -366 -17z"/>
</g>
</svg>
